/* XPM */
static const char* img2_xpm[] = {
/* width height ncolors chars_per_pixel */
"16 16 94 2",
"   c #003399",
" . c #4f6ead",
" + c #244ea2",
" @ c #b0b7c5",
" # c #768cb7",
" $ c #bdc1c8",
" % c #c3c6ca",
" & c #8496ba",
" * c #04369a",
" = c #96a3bf",
" - c #bbc0c8",
" ; c #7087b5",
" > c #b5bbc6",
" , c #1f4aa1",
" ' c #3d60a8",
" ) c #5a77b0",
" ! c #7d91b8",
" ~ c #5674af",
" { c #3057a5",
" ] c #b2b8c6",
" ^ c #cacacc",
" / c #5573ae",
" ( c #8e9ebd",
" _ c #c9cacb",
" : c #5976b0",
" < c #607bb1",
" [ c #c0c3c9",
" } c #0e3e9d",
" | c #18459f",
" 1 c #c1c4c9",
" 2 c #5b77b0",
" 3 c #355aa6",
" 4 c #bfc2c9",
" 5 c #778cb7",
" 6 c #c8c9cb",
" 7 c #c5c7ca",
" 8 c #8395ba",
" 9 c #92a1be",
" 0 c #c7c9cb",
" a c #5c78b0",
" b c #adb5c4",
" c c #b1b8c5",
" d c #5170ae",
" e c #0d3d9d",
" f c #cbcbcc",
" g c #05379b",
" h c #b4bac6",
" i c #0c3c9c",
" j c #0a3b9c",
" k c #4d6dad",
" l c #4a6bac",
" m c #bcc0c8",
" n c #9ca8c0",
" o c #91a0bd",
" p c #cbcccc",
" q c #5d79b0",
" r c #b8bdc7",
" s c #5e7ab1",
" t c #babec8",
" u c #8295ba",
" v c #2952a4",
" w c #9ba8c0",
" x c #5573af",
" y c #103f9d",
" z c #0f3e9d",
" A c #93a2be",
" B c #cccccc",
" C c #4c6cac",
" D c #bfc3c9",
" E c #4567ab",
" F c #06389b",
" G c #1c48a0",
" H c #b3b9c6",
" I c #c6c7cb",
" J c #8798ba",
" K c #2f56a5",
" L c #07389b",
" M c #8093b9",
" N c #afb6c5",
" O c #4466aa",
" P c #abb4c4",
" Q c #c4c6ca",
" R c #7e92b9",
" S c #093a9c",
" T c #5875af",
" U c #2b53a4",
" V c #788db7",
" W c #01349a",
" X c #4567aa",
" Y c #11409e",
" Z c #8597ba",
" ` c #03359a",
".  c #aab2c4",
".. c #bbbfc8",
" B B B B B B B B B B B B B B B B",
" B B B B B B _ 7 6 B B B B B B B",
" B B B B B B @ o N p B B B B B B",
" B B B B B % u X & p B B B B B B",
" B B B B B N x | T > B B B B B B",
" 6 D m t @ R U L { J h t m 1 0 B",
" H ! : C O U i   y { E k 2 M ] B",
" D ( l G S *     W * j G . 9 [ B",
" p 4 n < , *       F + s n [ B B",
" B B 6.  / j       Y ) P I B B B",
" B B B c / F ` g ` e a r B B B B",
" B B ^ A { } 3 d K z ' w f B B B",
" B B [ ; v q n b = ~ { # Q p B B",
" B B - 8 5 @ _ p 0.  V Z D p B B",
" B B 0.. m p B B B ^ $.. 6 B B B",
" B B B B B B B B B B B B B B B B",
};
