/* XPM */
static const char* img3_xpm[] = {
/* width height ncolors chars_per_pixel */
"16 16 84 1",
"  c #bb86cc",
". c #b87acc",
"+ c #c4accc",
"@ c #c9becc",
"# c #c9bfcc",
"$ c #c9c0cc",
"% c #ba85cc",
"& c #bd8fcc",
"* c #b369cc",
"= c #b161cc",
"- c #bc8acc",
"; c #b059cc",
"> c #b97fcc",
", c #b46dcc",
"' c #c6b3cc",
") c #c3a6cc",
"! c #b87bcc",
"~ c #c09bcc",
"{ c #b46ccc",
"] c #b46bcc",
"^ c #c2a5cc",
"/ c #b367cc",
"( c #b46acc",
"_ c #ba82cc",
": c #b160cc",
"< c #ad50cc",
"[ c #c09dcc",
"} c #bb87cc",
"| c #b672cc",
"1 c #cccacc",
"2 c #c19fcc",
"3 c #b980cc",
"4 c #b265cc",
"5 c #b673cc",
"6 c #bf97cc",
"7 c #c1a4cc",
"8 c #bf99cc",
"9 c #b15fcc",
"0 c #b674cc",
"a c #b776cc",
"b c #bd90cc",
"c c #be94cc",
"d c #cccbcc",
"e c #b264cc",
"f c #c7b9cc",
"g c #be92cc",
"h c #c2a4cc",
"i c #b981cc",
"j c #b777cc",
"k c #c3a8cc",
"l c #b56ecc",
"m c #bd9acc",
"n c #c8bdcc",
"o c #c09acc",
"p c #b56fcc",
"q c #bb88cc",
"r c #c5b1cc",
"s c #b570cc",
"t c #c7b8cc",
"u c #b15ecc",
"v c #c8bccc",
"w c #bd8ecc",
"x c #b677cc",
"y c #cccccc",
"z c #c8bbcc",
"A c #b778cc",
"B c #c09ccc",
"C c #c4adcc",
"D c #cac3cc",
"E c #b36ccc",
"F c #c7b6cc",
"G c #b15dcc",
"H c #cbc6cc",
"I c #cac4cc",
"J c #bd91cc",
"K c #bf96cc",
"L c #b05acc",
"M c #c2a3cc",
"N c #b261cc",
"O c #bf98cc",
"P c #bb89cc",
"Q c #b97ecc",
"R c #bf9acc",
"S c #be95cc",
"yyyyyyyyyyyyyyyy",
"yyyyHF7mRM'Iyyyy",
"yyd@8|L<<;pcfdyy",
"yynqL4}~B-(;3tyy",
"yHgG.B6wwKB_G Dy",
"yr,]BJA((awBa4ky",
"yK=PSx|!!50J&4qy",
"yPu~ql!!!!si[(jy",
"y}G2 ,!!!!pQ2(0y",
"yb:gw0a!!j5PS/>y",
"y^/A~%|55|3oieoy",
"y$3uw~-ja og/0zy",
"yyCse%K22O}**)yy",
"yyd+|G{jAl9Eh1yy",
"yyyy#o0N=|Svyyyy",
"yyyyyyyyyyyyyyyy",
};
