/* XPM */
static const char* img4_xpm[] = {
/* width height ncolors chars_per_pixel */
"16 16 94 2",
"   c #c4c0c0",
" . c #846060",
" + c #6d3d3d",
" @ c #683636",
" # c #a79494",
" $ c #967c7c",
" % c #b5a9a9",
" & c #ab9a9a",
" * c #bcb4b4",
" = c #704242",
" - c #7f5858",
" ; c #b2a5a5",
" > c #c6c3c3",
" , c #b1a3a3",
" ' c #c5c2c2",
" ) c #987e7e",
" ! c #6a3838",
" ~ c #a08989",
" { c #866262",
" ] c #b9afaf",
" ^ c #b3a6a6",
" / c #784e4e",
" ( c #886767",
" _ c #774d4d",
" : c #9d8686",
" < c #c8c6c6",
" [ c #cbcaca",
" } c #b6abab",
" | c #8b6a6a",
" 1 c #a28d8d",
" 2 c #c9c7c7",
" 3 c #cbcbcb",
" 4 c #917474",
" 5 c #ad9e9e",
" 6 c #c7c4c4",
" 7 c #c7c3c3",
" 8 c #8a6868",
" 9 c #754a4a",
" 0 c #a38e8e",
" a c #bdb6b6",
" b c #cac9c9",
" c c #beb7b7",
" d c #8a6969",
" e c #7d5555",
" f c #c7c5c5",
" g c #825d5d",
" h c #bbb2b2",
" i c #856161",
" j c #c5c1c1",
" k c #805959",
" l c #734747",
" m c #693737",
" n c #aa9999",
" o c #6e3f3f",
" p c #876464",
" q c #7c5454",
" r c #7a5050",
" s c #c3bebe",
" t c #927474",
" u c #673535",
" v c #866363",
" w c #bab1b1",
" x c #cccccc",
" y c #b0a2a2",
" z c #8c6c6c",
" A c #bdb5b5",
" B c #724444",
" C c #7d5656",
" D c #937676",
" E c #b7acac",
" F c #afa0a0",
" G c #a48f8f",
" H c #a99797",
" I c #663333",
" J c #b3a7a7",
" K c #6c3b3b",
" L c #815b5b",
" M c #774c4c",
" N c #7e5757",
" O c #896767",
" P c #714343",
" Q c #7b5353",
" R c #6b3a3a",
" S c #c9c8c8",
" T c #907272",
" U c #aa9898",
" V c #907171",
" W c #6c3c3c",
" X c #927575",
" Y c #bfb9b9",
" Z c #c8c5c5",
" ` c #9f8888",
".  c #8d6d6d",
".. c #673434",
" x x x x x [ 3 x 3 [ x x x x x x",
" x x x x 6 w Y 3 Y E b x x x x x",
" x x x x * : , > H X   Z x x x x",
" x x x b U B D ; p M # 7 x x x x",
" x x f % d.. _ 8 @ o $ 2 x x x x",
" x [ E ) V m r | u 9 ~ ^ Y 2 x x",
" x S y p O z ` 5 N e t k 1 S x x",
" x E C u O x x [ [ } Q I L c x x",
" x h i m d [ j ] h % q W T j x x",
" x < & v G w X l g n $ N 0 b x x",
" x x [ > J.  @ I + . ` A [ x x x",
" x x * 4 = I I I I I ! { * x x x",
" x b F 9 I I I I I I u - E x x x",
" x x w O @ I u.. I I R ( a x x x",
" x x < , p B N / K P z E x x x x",
" x x x x f   6 ' s   < x x x x x",
};
